<svg height="512.00001pt" viewBox="0 0 512.00001 512.00001" width="512.00001pt" xmlns="http://www.w3.org/2000/svg"><path d="m80 16h352c35.347656 0 64 28.652344 64 64v352c0 35.347656-28.652344 64-64 64h-352c-35.347656 0-64-28.652344-64-64v-352c0-35.347656 28.652344-64 64-64zm0 0" fill="#FFE100"/><g fill="#000000"><path d="m432 0h-352c-44.160156.0546875-79.9453125 35.839844-80 80v352c.0546875 44.160156 35.839844 79.945312 80 80h352c44.160156-.054688 79.945312-35.839844 80-80v-352c-.054688-44.160156-35.839844-79.9453125-80-80zm48 432c0 26.507812-21.492188 48-48 48h-352c-26.511719 0-48-21.488281-48-48v-352c0-26.507812 21.488281-48 48-48h352c26.507812 0 48 21.488281 48 48zm0 0"/><path d="m380.449219 108.929688-124.449219 124.445312-124.449219-124.445312-22.621093 22.621093 124.445312 124.449219-124.445312 124.449219 22.621093 22.621093 124.449219-124.445312 124.449219 124.445312 22.621093-22.621093-124.445312-124.449219 124.445312-124.449219zm0 0"/></g></svg>